
<svg width="200" height="200" viewBox="0 0 24 24" xmlns="http://www.w3.org/2000/svg">
  <!-- Background circle -->
  <circle cx="12" cy="12" r="10" fill="#252b3b"/>
  <!-- WhatsApp phone + speech bubble icon in white -->
  <path fill="#fff" d="M16.57 14.86c-.27-.13-1.6-.79-1.85-.88-.25-.1-.43-.13-.61.13-.18.27-.71.88-.87 1.06-.16.18-.32.2-.59.07-.27-.13-1.14-.42-2.17-1.33-.8-.71-1.34-1.59-1.5-1.86-.16-.27-.02-.42.12-.55.13-.13.27-.32.4-.48.13-.16.18-.27.27-.45.09-.18.05-.34-.02-.47-.07-.13-.61-1.47-.84-2.02-.22-.53-.45-.46-.61-.47-.16-.01-.35-.02-.54-.02s-.47.07-.71.34c-.25.27-.96.93-.96 2.26s.98 2.62 1.12 2.8c.13.18 1.94 2.96 4.7 4.15.66.28 1.17.45 1.57.58.66.21 1.26.18 1.74.11.53-.08 1.6-.65 1.83-1.28.23-.62.23-1.15.16-1.28-.07-.13-.25-.2-.52-.33z"/>
</svg>
